<?xml version="1.0" standalone="no"?>
<!DOCTYPE svg PUBLIC "-//W3C//DTD SVG 1.1//EN" "http://www.w3.org/Graphics/SVG/1.1/DTD/svg11.dtd" >
<svg xmlns="http://www.w3.org/2000/svg" xmlns:xlink="http://www.w3.org/1999/xlink" version="1.1">
<metadata></metadata>
<defs>
<font id="signpainter_housescriptRg" horiz-adv-x="665" >
<font-face units-per-em="2048" ascent="1638" descent="-410" />
<missing-glyph horiz-adv-x="450" />
<glyph horiz-adv-x="0" />
<glyph unicode="&#xd;" horiz-adv-x="450" />
<glyph unicode=" "  horiz-adv-x="450" />
<glyph unicode="&#x09;" horiz-adv-x="450" />
<glyph unicode="&#xa0;" horiz-adv-x="450" />
<glyph unicode="!" horiz-adv-x="649" d="M121 74q0 33 17.5 63.5t47.5 30.5q53 -1 82 -62q10 -25 11 -51q0 -96 -64 -96q-45 0 -74 45q-20 33 -20 70zM262 283q0 55 27 127q63 170 192 421q135 265 248 429q12 18 27 18q39 0 39 -96q0 -98 -76 -236q-248 -449 -389 -751q-14 -31 -35 -9q-33 35 -33 97z" />
<glyph unicode="&#x22;" horiz-adv-x="651" d="M328 887q29 86 92 211q68 133 115 192q14 18 26 19q31 0 31 -60q0 -39 -27 -86q-104 -186 -178 -282q-25 -29 -45 -27q-25 4 -14 33zM432 829q154 264 279 388q14 14 28 14q20 0 25 -21q10 -57 -41 -129q-59 -84 -154 -186q-113 -121 -133 -107q-18 14 -4 41z" />
<glyph unicode="#" horiz-adv-x="1044" d="M33 303q-4 6 4 19q35 51 166 71q45 6 92 13q55 127 149 305q-111 -4 -213 -13q-14 -2 -20 7q-4 10 4 20q45 55 277 78q94 174 178 311q12 20 22 21q23 0 23 -50q0 -66 -99 -276q92 6 191 6q119 213 188 309q12 16 23 17q20 0 20 -47q0 -74 -63 -197q-14 -27 -43 -82 q125 0 186 -8q27 -4 27 -14q0 -8 -8 -17q-59 -61 -232 -61h-28l-162 -291q125 2 223 -4q27 -2 27 -14q0 -8 -9 -17q-63 -63 -229 -63h-65q-84 -154 -150 -293q-12 -27 -29 0q-10 16 -10 47q0 78 80 244q-68 0 -191 -5q-76 -152 -126 -262q-12 -27 -29 0q-10 16 -10 52 q0 70 57 204q-133 -8 -201 -14q-18 -2 -20 4zM410 414q59 4 190 8q66 135 152 293h-185q-25 -47 -157 -301z" />
<glyph unicode="$" horiz-adv-x="718" d="M59 399q-18 27 13 33q66 14 131 -35q41 -33 87 -66.5t101 -37.5q29 -2 60.5 11t31.5 40q0 18 -20 37q-82 51 -162 102q-115 76 -113 158q2 121 101 229q82 92 198 142q50 20 107 10q53 92 123 209q12 20 20 20q29 0 29 -59q0 -78 -82 -219q70 -59 70 -131q0 -49 -35 -123 q-33 -66 -64 -131q-14 -33 -45 -13q-51 33 -51 91q0 35 19 79q2 4 38 82q23 49 23 72q0 29 -27 29q-63 0 -163 -84q-115 -94 -119 -193q-2 -49 82 -104q68 -41 137 -84q39 -29 39 -72q0 -53 -56.5 -114.5t-162.5 -61.5q-41 0 -82 12l-97 -194q-14 -27 -28 -6q-14 20 -15 53 q0 39 23 98l33 84q-78 45 -144 137z" />
<glyph unicode="%" horiz-adv-x="1220" d="M264 780q0 106 74 232q113 195 264 198q68 2 107 -57q74 -111 227 -111q121 0 186 72q27 29 41 29q10 0 15 -21q16 -92 -103 -231q-178 -207 -358 -414q-258 -303 -375 -475q-23 -33 -35 4q-6 16 -6 37q0 63 53 147q142 226 625 771q-106 -6 -197 53q0 -133 -98 -283 q-106 -166 -233 -166q-88 0 -148 86q-39 55 -39 129zM369 717q0 -70 45 -70q88 0 180 160q88 152 88 258q0 55 -39 55t-98.5 -52t-104.5 -126q-72 -121 -71 -225zM684 176q0 104 68 223q115 199 256 209q68 4 110 -53q27 -31 53 -63q27 -39 21 -113q-10 -131 -98 -264 q-103 -154 -224 -154q-86 0 -145 80q-41 55 -41 135zM786 113q0 -74 50 -74q88 0 176 166q78 145 78 254q0 57 -37 57q-39 0 -97.5 -52t-101.5 -128q-68 -119 -68 -223z" />
<glyph unicode="&#x26;" horiz-adv-x="1071" d="M61 207q0 137 106.5 263t272.5 173q-115 39 -121 160q-6 137 123 270q111 113 234 152q86 27 139 26q78 0 151.5 -57t73.5 -133q0 -45 -30 -109q-35 -90 -88 -207q-10 -16 -39 -2q-59 31 -60 115q0 39 14.5 81t49.5 112q27 53 26 71q0 37 -41 37q-100 0 -249 -123 q-166 -135 -158 -260q6 -96 149 -92q119 2 152 -86q10 -27 -23 -29q-227 -18 -392 -139t-169 -268q-2 -63 35 -106.5t102 -47.5q86 -6 189 64q119 80 182 219q-33 -6 -94 -17q-145 -14 -190 82q-6 14 -3 23q4 10 23 10q70 0 211 31q154 33 209 37q135 8 184 -99q4 -18 0 -26 t-20 -6q-86 10 -207 -13q4 -18 4 -39q0 -86 -74 -182q-59 -78 -151 -129q-100 -53 -201 -53q-125 0 -222.5 85t-97.5 212z" />
<glyph unicode="'" horiz-adv-x="493" d="M328 899q39 92 112 234q102 188 138 188q29 0 28 -53q0 -41 -28 -90q-148 -250 -201 -299q-20 -18 -41 -15q-18 2 -8 35z" />
<glyph unicode="(" horiz-adv-x="466" d="M94 184q0 330 152 627q166 320 463 506q33 20 39 -14q18 -111 -142 -252q-195 -174 -305 -435q-117 -272 -117 -596q0 -68 6 -137q0 -12 -6 -16q-8 -2 -16 4q-43 27 -57 111q-16 98 -17 202z" />
<glyph unicode=")" horiz-adv-x="501" d="M-100 -115q-2 6 8 15q276 233 424 561q133 297 121 577q-8 205 82 275q28 22 36 -17q27 -125 27 -256q0 -332 -162 -651q-147 -291 -360 -446q-88 -66 -162 -66q-12 0 -14 8z" />
<glyph unicode="*" horiz-adv-x="749" d="M287 905q12 59 98 90q29 10 94 31q-37 57 -102 170q-16 31 16 35q70 6 119 -76q14 -18 45 -65q57 113 133 235q10 16 31 4q27 -18 27 -61q0 -35 -21 -76q-16 -31 -65 -121q100 25 188 41q18 4 25.5 -2.5t3.5 -22.5q-14 -66 -103 -90q-39 -10 -143 -32q35 -59 100 -152 q23 -27 -18 -31q-55 -4 -103 56q-14 18 -45 59q-68 -113 -98 -184q-10 -25 -31 -2q-18 23 -18 57q0 31 14 70q8 27 35 88q-57 -12 -156 -39q-14 -4 -22 0q-6 6 -4 18z" />
<glyph unicode="+" horiz-adv-x="643" d="M127 598q-4 14 1 22.5t24 6.5q74 -6 200 6l111 198q18 33 47 3q29 -33 29 -86q0 -48 -27 -105q127 -2 145 -111q2 -16 0 -20q-4 -8 -22 -6q-80 8 -199 -4q-80 -135 -106 -203q-8 -37 -37 -14q-41 33 -41 90q0 51 31 114h-4q-127 2 -152 109z" />
<glyph unicode="," horiz-adv-x="489" d="M111 -78q2 8 10 12q32 13 55 33q-37 18 -37 70q0 45 33 85t78 38q63 -2 63 -88q0 -61 -46 -115.5t-107 -54.5q-20 0 -39 8q-10 4 -10 12z" />
<glyph unicode="-" d="M92 516q-4 16 0 23q4 6 21 6q63 -4 184 6q137 10 172 10q131 0 154 -106q4 -14 -1.5 -22.5t-21.5 -6.5q-33 2 -65 2q-61 0 -162 -10q-92 -12 -131 -10q-129 6 -150 108z" />
<glyph unicode="." horiz-adv-x="456" d="M113 37q0 45 31.5 86t74.5 41q63 0 64 -74q0 -27 -13 -53q-31 -76 -96 -76q-61 0 -61 76z" />
<glyph unicode="/" horiz-adv-x="811" d="M53 -8q0 61 43 141q84 156 471 594q344 389 557 594q14 14 27 14q25 0 25 -55q0 -102 -127 -252q-229 -250 -459 -498q-365 -401 -490 -591q-23 -35 -39 4q-8 23 -8 49z" />
<glyph unicode="0" horiz-adv-x="1001" d="M86 336q-4 289 197 571q174 244 360 324q63 27 123 26q86 0 137 -53q170 -63 170 -313q0 -213 -112 -445q-102 -211 -234 -335q-150 -141 -305 -142q-51 0 -105 17q-227 74 -231 350zM221 283q0 -233 141 -234q102 0 228 117q133 124 229 323q127 260 127 474 q0 201 -108 200q-88 0 -222 -108q-147 -121 -258 -314q-137 -236 -137 -458z" />
<glyph unicode="1" horiz-adv-x="446" d="M-8 41q0 53 22 127q72 229 394 813q-86 -4 -86 20q0 10 12 23q68 66 196 197q27 25 54 0q45 -39 45 -99q0 -68 -60 -180q-119 -219 -237 -436q-170 -317 -271 -557q-14 -35 -36 -8q-33 37 -33 100z" />
<glyph unicode="2" horiz-adv-x="866" d="M-55 80q0 25 41 49q365 219 640 496.5t275 431.5q0 39 -22.5 68.5t-59.5 29.5q-113 0 -274 -246q-94 -143 -205 -137q-31 2 -21 33q33 96 113 205q100 139 209 194q63 33 131 33q98 0 169 -70.5t71 -169.5q0 -84 -51 -186q-70 -139 -275 -332q-238 -226 -514 -373 q154 47 279 50q147 4 182 -99q6 -16 2 -22q-4 -8 -23 -8q-84 2 -254 -25q-156 -27 -252 -55q-70 -20 -102 14q-59 66 -59 119z" />
<glyph unicode="3" horiz-adv-x="878" d="M33 244q0 53 18 96q55 133 168 133q35 0 17 -29q-82 -131 -82 -239q0 -84 51 -117q35 -23 82 -22q158 0 301 180q121 152 121 252q0 78 -86 77q-14 0 -84 -10q-55 -10 -90 -2q-49 12 -89 58q-23 27 19 38q256 76 418 220q141 125 141 227q0 35 -22.5 59.5t-57.5 24.5 q-90 0 -237 -184q-94 -117 -191 -117q-14 0 -31 2q-35 6 -20 37q45 92 134 185t165 130q59 29 129 29q109 0 172 -64q70 -72 70 -157q0 -92 -82 -201q-98 -129 -279 -205q63 -14 94 -41q61 -53 62 -143q0 -137 -137 -307q-150 -184 -361 -185q-111 0 -190 54 q-123 80 -123 221z" />
<glyph unicode="4" horiz-adv-x="872" d="M92 475q-18 35 8 66q123 145 379 354q242 199 449 332q25 14 43 14q23 0 37 -20q33 -53 57 -97q16 -31 16 -47q0 -20 -32 -71q-115 -177 -289 -490q59 -31 76 -88q4 -14 -2.5 -20.5t-20.5 -4.5q-47 8 -111 7q-145 -268 -217 -447q-14 -37 -34 -8q-35 51 -35 108 q0 49 22 115q27 76 94 217q-170 -23 -299 -53q-47 -10 -69 16q-29 35 -72 117zM193 475q215 55 411 66q158 305 297 508q-485 -334 -708 -574z" />
<glyph unicode="5" horiz-adv-x="849" d="M31 231q0 55 20 109q45 123 168 133q12 0 17 -8q4 -8 -5 -21q-78 -121 -77 -237q0 -145 114 -146q76 0 170 74t156 178q88 152 88 273q0 117 -94 116q-127 0 -240 -151q-20 -27 -41 -2q-37 43 -37 104q0 109 236 480q-23 23 -35 61q-4 14 2 20.5t23 6.5q109 -4 276 24 q180 31 215 31q125 2 164 -111q10 -26 -21 -26q-82 0 -241.5 -30t-237.5 -30q-68 -100 -202 -313q51 20 110 20q100 0 162 -47q100 -76 100 -207t-104 -305q-152 -252 -398 -252q-86 0 -157 37q-131 70 -131 219z" />
<glyph unicode="6" horiz-adv-x="821" d="M72 315q0 213 141 463q125 221 293 357q111 90 215 122q39 12 80 13q68 0 117 -33q77 -52 73 -156q-6 -160 -86 -321q-14 -29 -43 -10q-51 35 -51 118q0 53 23 115q47 127 47 166q0 23 -15 25q-72 8 -209 -103q-164 -131 -292 -352q76 47 155 47q113 0 187.5 -82 t74.5 -197q0 -123 -82 -272q-135 -242 -331 -242q-82 0 -156 43q-141 82 -141 299zM205 233q0 -119 59 -155q20 -12 47 -12q66 0 141.5 65.5t129.5 173.5q72 145 71 250q0 121 -98 121q-90 0 -182 -80q-111 -94 -154 -256q-14 -55 -14 -107z" />
<glyph unicode="7" horiz-adv-x="690" d="M6 29q0 70 51 168q92 174 322.5 460.5t404.5 440.5q-82 -18 -166 -37q-100 -25 -165 -25q-135 0 -170 113q-8 25 22 25q96 0 246 24q195 33 211 35q68 6 94 -33q66 -96 66 -156q0 -23 -45 -65q-186 -176 -428 -477q-252 -311 -390 -539q-18 -29 -36 0q-16 27 -17 66z" />
<glyph unicode="8" horiz-adv-x="794" d="M10 178q0 233 369 529q-59 131 -49 206q16 137 137 232.5t262 95.5q96 0 156.5 -55.5t52.5 -159.5q82 20 127 -6q31 -18 -2 -37q-260 -139 -496 -313q27 -51 78 -156q55 -121 55 -215q0 -137 -111.5 -251t-297.5 -114q-82 0 -141 29q-139 68 -140 215zM137 131 q0 -72 56 -98q29 -14 67 -15q102 0 182 84q94 98 95 195q-1 88 -95 274q-209 -176 -274 -321q-31 -66 -31 -119zM487 913q0 -49 23 -110q154 106 301 174q6 86 -24.5 142.5t-98.5 43.5q-76 -14 -138.5 -91t-62.5 -159z" />
<glyph unicode="9" horiz-adv-x="847" d="M-18 160q-6 119 81 172q20 12 31 10q12 -2 8 -23q-16 -72 -16 -129q0 -174 129 -174q90 0 197 107q115 115 219 328q-74 -43 -154 -43q-66 0 -129 30q-137 68 -137 242q0 121 78 266q158 291 373 291q68 0 131 -33q135 -68 135 -266q0 -217 -158 -537 q-227 -459 -520 -464q-102 -2 -174 45q-88 59 -94 178zM342 621q0 -137 109 -138q76 0 156.5 73t131.5 200q59 147 60 258q0 139 -82 139q-63 0 -150.5 -80t-148.5 -196q-76 -143 -76 -256z" />
<glyph unicode=":" horiz-adv-x="522" d="M78 39q0 26 10 49q37 76 96 76q61 0 62 -74q0 -27 -10 -53q-31 -76 -97 -76q-61 0 -61 78zM397 649q0 45 33 86t74 41q61 0 61 -74q0 -25 -10 -51q-31 -76 -94 -76t-64 74z" />
<glyph unicode=";" horiz-adv-x="540" d="M66 -78q0 8 10 12q30 10 53 33q-35 18 -35 66q0 47 34 88t79 39q61 -2 61 -86q0 -25 -10 -54q-16 -49 -57 -83.5t-86 -34.5q-20 0 -39 8q-10 4 -10 12zM418 649q0 43 32.5 85t73.5 42q61 0 62 -76q0 -45 -32 -85t-73 -40q-63 0 -63 74z" />
<glyph unicode="&#x3c;" horiz-adv-x="589" d="M150 573q-6 41 34 56q236 80 383 178q33 23 33 -19q0 -76 -76 -135q-53 -40 -200 -106q76 -41 116 -78q63 -55 52 -129q-6 -37 -37 -14q-70 51 -248 139q-43 20 -57 108z" />
<glyph unicode="=" horiz-adv-x="739" d="M106 483q-4 16 0 23q6 8 23 6q59 -4 182 8q131 12 172 10q131 -6 154 -110q4 -14 -1 -22.5t-22 -6.5q-33 2 -65 2q-61 0 -156.5 -11t-134.5 -9q-129 6 -152 110zM207 705q-4 16 1 21t21 5q57 -4 184.5 6.5t172.5 7.5q133 -8 151 -112q2 -16 -3 -23.5t-23 -5.5 q-43 4 -88 4q-55 0 -144.5 -7t-124.5 -7q-125 2 -147 111z" />
<glyph unicode="&#x3e;" horiz-adv-x="593" d="M125 346q-4 68 78 127q63 47 190 92q-82 43 -125 82q-63 57 -53 133q6 39 37 17q139 -100 301 -168q27 -12 27 -31q0 -12 -9 -31q-41 -86 -90 -104q-115 -43 -325 -137q-29 -14 -31 20z" />
<glyph unicode="?" horiz-adv-x="788" d="M123 74q0 35 14 61q20 35 51 35q53 -1 78 -64q12 -31 13 -61q0 -86 -66 -86q-45 0 -72 45q-18 33 -18 70zM231 303q0 43 21 92q51 121 257 240t296 309q43 90 43 162q0 63 -41 86q-20 10 -43 10q-80 0 -181.5 -107.5t-179.5 -265.5q-10 -20 -20 -20q-18 0 -31 43 q-10 33 -10 57q0 84 55 172q129 209 322 209q74 0 135 -41q109 -72 109 -215q0 -90 -45 -184q-88 -182 -379 -342q-182 -100 -236 -297q-8 -35 -37 -6q-35 35 -35 98z" />
<glyph unicode="@" horiz-adv-x="1200" d="M123 389q-4 266 207 502q184 207 379 250q47 10 92 10q117 0 188 -74q186 -86 187 -327q0 -123 -50 -244q-57 -143 -147 -223t-180 -74q-125 8 -131 129q-96 -113 -197 -113q-63 0 -99 45t-36 119q0 119 86 244q182 264 344 264q45 0 72.5 -29.5t31.5 -70.5q16 29 54 80 q23 25 37 10q25 -25 24 -78q0 -49 -24 -102q-59 -98 -156 -281q-31 -70 -31 -115q0 -37 21 -41q37 -8 90 49q63 68 120.5 200t57.5 261q0 201 -123 254q-41 16 -90 17q-113 0 -238 -76q-135 -84 -241 -232q-137 -193 -138 -393q0 -195 125 -252q45 -20 103 -20 q152 0 256 100q31 29 31 -8q0 -82 -78 -127q-68 -39 -162 -39q-84 0 -154 27q-227 88 -231 358zM451 346q0 -57 38 -59q90 -2 232 239q94 162 94 244q0 39 -27 41q-41 2 -114 -66q-78 -74 -144 -178q-80 -129 -79 -221z" />
<glyph unicode="A" horiz-adv-x="905" d="M20 63q0 94 86 252q-51 29 -67 70q-8 20 -4 27q6 8 28 4q59 -8 93 -10q135 236 309 468q201 268 352 394q25 20 41 20t30.5 -19.5t49.5 -86.5q14 -34 14 -71.5t-14 -78.5q-98 -295 -150 -596q76 -25 93 -104q2 -14 -2 -19q-6 -4 -21 0q-31 8 -88 13q-27 -197 -31 -328 q0 -33 -30 -18q-74 33 -76 186q0 66 8 156q-41 -2 -221 -21q-115 -12 -172 -12h-15q-96 -164 -155 -295q-14 -33 -37 -4q-20 27 -21 73zM311 412q125 16 346 34q57 391 152 631q-254 -284 -498 -665z" />
<glyph unicode="B" horiz-adv-x="929" d="M16 166q0 45 29 123q133 373 391 758q-104 6 -139 81q-14 33 20 35q72 6 234 61.5t231 59.5q12 1 24 1q174 0 218 -167q14 -53 14 -104q0 -127 -86 -238q-123 -160 -319 -244q59 -29 98 -86q27 -41 27 -100q0 -98 -74 -180q-137 -152 -358 -191q-44 -8 -80 -8 q-54 1 -92 19q-62 30 -105 94q-33 47 -33 86zM141 125q0 -45 52 -45q10 0 22 2q102 12 213 70q119 61 182 139q47 59 47 105q0 83 -157 91q-43 -10 -86 -14q-24 -3 -44 -3q-50 0 -83 17q-98 -188 -137 -317q-8 -27 -9 -45zM342 590q262 61 444 213q168 139 168 258 q0 88 -92 88q-53 0 -145 -31q-78 -25 -154 -51v-13q0 -73 -61 -188q-49 -86 -160 -276z" />
<glyph unicode="C" horiz-adv-x="946" d="M68 367v17q0 288 202 558q180 240 383 318q88 34 154 34h4q72 0 119 -41q84 -74 108 -149q10 -33 11 -66q0 -55 -29 -114q-25 -49 -82 -203q-12 -33 -45 -12q-61 41 -62 122q0 53 43.5 159t43.5 147q0 55 -52 55q-90 0 -237 -113q-168 -127 -279 -309 q-135 -225 -135 -448q0 -174 76 -236q43 -37 100 -37q96 0 206 99.5t198 273.5q8 16 20 16q35 0 35 -86q0 -80 -62 -168q-51 -72 -116 -118q-117 -84 -256 -84q-96 0 -171 39.5t-122 128.5q-53 96 -55 217z" />
<glyph unicode="D" horiz-adv-x="989" d="M27 174q0 43 28 129q45 139 158 354q106 205 217 369q-102 6 -133 86q-12 35 20 39q63 8 211 70q131 55 211 55q160 0 265 -184q49 -88 49 -201q0 -256 -219 -520q-227 -279 -555 -387q-35 -12 -62 -13q-39 0 -70 27q-55 47 -87.5 91t-32.5 85zM145 123q0 -35 29 -35 q12 0 33 8q326 123 538 408q186 250 187 463q0 74 -31 123t-90 49q-45 0 -129 -35q-133 -53 -143 -57q4 -16 4 -35q0 -80 -58 -181q-90 -160 -180 -319q-111 -203 -147 -324q-12 -41 -13 -65z" />
<glyph unicode="E" horiz-adv-x="753" d="M-27 59q-12 22 -12 50q0 30 14 67q149 403 471 899q-66 27 -86 105q-4 14 1.5 19t21.5 5q18 -1 38 -1q92 0 238 22q191 30 232 30h2h5q115 0 151 -100q4 -14 0 -20q-6 -8 -23 -7h-17q-86 0 -200 -18q-98 -18 -199 -37q-94 -141 -282 -483q72 12 145 16h15q122 0 153 -92 q10 -31 -20 -31q-150 0 -379 -57q-96 -184 -158 -324q184 57 317 64h16q125 0 158 -90q6 -14 3 -23q-6 -8 -23 -8h-6q-138 0 -447 -82q-16 -4 -30 -4q-35 0 -56 25q-8 8 -43 75z" />
<glyph unicode="F" horiz-adv-x="743" d="M-43 80q0 51 25 123q100 294 456 874q-61 29 -80 105q-4 12 2.5 18t20.5 6q12 -1 25 -1q92 1 250 25q182 28 227 27q125 0 168 -104q6 -12 0 -23q-6 -8 -25 -8h-16q-89 0 -205 -20q-100 -18 -201 -37q-125 -203 -268 -467q61 12 137 16q10 1 19 0q122 0 153 -98 q4 -14 0 -22t-22 -9h-9q-134 0 -368 -57q-141 -276 -213 -442q-12 -27 -35 -9q-41 35 -41 103z" />
<glyph unicode="G" horiz-adv-x="1024" d="M66 344v5q0 298 231 585q203 248 410 315q84 27 145 27q88 0 156 -57q92 -84 92 -197q0 -51 -25 -109q-39 -88 -80 -196q-8 -20 -22 -21q-10 0 -21 11q-63 43 -63 127q0 31 10 67q8 29 43 121q29 70 29 102q0 53 -58 54q-96 0 -256 -115q-178 -127 -295 -305 q-155 -238 -155 -483q0 -144 53 -195q35 -33 88 -33q94 0 206 93t183 237q-125 -23 -180 -29q-16 -2 -31 -2q-118 0 -166 100q-16 33 21 33q84 0 233.5 26.5t206.5 29.5h5q135 0 182 -105q8 -18 4 -27q-6 -8 -25 -6t-44 2q-41 0 -99 -6q8 -27 8 -53q0 -117 -119 -231 q-98 -96 -188 -121q-80 -23 -146 -23q-113 0 -196 64q-135 102 -137 315z" />
<glyph unicode="H" horiz-adv-x="999" d="M35 72q0 51 20 123q8 29 88 208q-47 23 -69 66q-10 18 -4 25q6 8 30 6q87 -5 87 -6h-1q262 545 406 745q12 16 24 16q41 0 41 -96q0 -94 -69.5 -224t-231.5 -431q135 27 404 61q266 528 395 699q14 18 27 18q39 0 39 -94q0 -95 -78 -236q-70 -123 -230 -407 q61 -27 80 -90q2 -14 -3 -19.5t-19 -3.5q-35 7 -79 7q-17 0 -36 -1q-119 -227 -209 -434q-14 -33 -35 -4q-30 42 -30 96q0 56 24 129q20 63 86 197q-365 -45 -403 -45q-106 -213 -187 -400q-16 -37 -36 -8q-31 43 -31 103z" />
<glyph unicode="I" horiz-adv-x="372" d="M-29 90q0 55 25 125q72 201 254 539q170 320 301 508q12 18 24 18q41 0 41 -98t-77 -236q-162 -285 -242 -434q-164 -301 -260 -520q-12 -27 -33 -4q-33 37 -33 102z" />
<glyph unicode="J" horiz-adv-x="894" d="M-12 219q0 45 12 92q35 135 135 158q35 8 35 -18q0 -10 -4 -23q-47 -137 -47 -233q0 -168 125 -168q111 0 233 178q70 104 203 379q260 537 352 678q12 18 25 18q23 0 37 -49q10 -37 10 -68q0 -74 -37 -159q-55 -133 -172 -367q-129 -256 -207 -387q-174 -291 -414 -291 q-39 0 -79 8q-94 16 -150.5 85t-56.5 167z" />
<glyph unicode="K" horiz-adv-x="813" d="M2 201q39 131 236.5 522t291.5 520q12 18 25 19q20 0 35 -45q10 -35 10 -62q0 -94 -68 -215l-194 -354q436 326 749 667q25 27 39 -4q6 -20 7 -43q0 -78 -71 -173t-253 -257q-190 -168 -393 -311q115 -182 145.5 -255t30.5 -132t-31 -96q-20 -27 -37 4q-114 223 -268 444 q-102 -195 -211 -448q-14 -33 -33 -7q-30 42 -30 99q0 55 20 127z" />
<glyph unicode="L" horiz-adv-x="722" d="M-8 78q-9 21 -9 47q0 33 15 72q72 184 270 555q193 358 291 493q12 16 25 17q41 0 41 -99q0 -88 -68 -211q-102 -184 -205 -368q-145 -262 -239 -469q178 47 311 57q15 1 28 1q117 0 152 -93q6 -14 2 -23q-4 -8 -22 -8h-6q-128 0 -441 -80q-20 -5 -36 -5q-38 0 -56 26 q-43 61 -53 88z" />
<glyph unicode="M" horiz-adv-x="1173" d="M-47 68q0 57 27 127q55 143 260 481q201 330 368 561q18 25 37 25q14 0 29 -13q78 -68 78 -155q0 -59 -29 -148q-115 -348 -217 -723q117 193 373 516q270 340 374 504q14 23 31 23q12 0 29 -17q55 -55 55 -135q0 -74 -49 -164q-311 -578 -451 -975q-8 -27 -32 -6 q-39 33 -39 109q0 49 16 115q49 190 295 663q-434 -526 -619 -870q-16 -29 -36 -15q-84 61 -84 176q0 33 6 72q43 271 176 672q-387 -582 -533 -916q-12 -29 -34 -4q-31 35 -31 97z" />
<glyph unicode="N" horiz-adv-x="940" d="M-25 88q0 55 25 121q135 369 530 1034q17 26 35 26q9 0 19 -7q80 -57 80 -156q0 -39 -11 -98q-45 -268 -67 -738q229 520 528 981q10 16 23 17q14 0 24 -21q18 -35 19 -76q0 -86 -82 -221q-98 -162 -252 -454q-164 -315 -250 -510q-12 -29 -41 -13q-88 47 -100 213 q-6 71 -6 156q0 222 40 537q-348 -598 -444 -891q-12 -35 -35 -8q-35 39 -35 108z" />
<glyph unicode="O" horiz-adv-x="1099" d="M82 367q0 299 221 581q190 244 393 316q59 20 117 20q103 0 162 -61q174 -76 174 -326q0 -229 -131 -471q-113 -207 -252 -330q-158 -137 -320 -137q-66 0 -131 25q-233 86 -233 383zM223 287q0 -238 156 -238q109 0 244.5 117.5t244.5 316.5q145 268 146 494 q0 203 -117 203q-96 0 -238 -105q-158 -115 -278 -303q-158 -246 -158 -485z" />
<glyph unicode="P" horiz-adv-x="870" d="M-2 190q39 139 164 389t260 463q-94 10 -129 86q-16 33 20 37q84 8 244 60q150 49 219 51h15q169 0 229 -170q18 -53 18 -111q0 -115 -79.5 -239.5t-233.5 -223.5q-164 -104 -358 -141q-19 -3 -36 -3q-49 0 -91 24q-86 -170 -191 -418q-12 -29 -33 -6q-34 34 -34 98 q0 49 16 104zM299 526q287 53 475 228q166 150 166 286q0 98 -94 99q-51 0 -146 -33q-76 -25 -151 -51q0 -90 -78 -226q-55 -94 -172 -303z" />
<glyph unicode="Q" horiz-adv-x="1112" d="M-18 -57q-6 8 2 18q57 78 200 78h21h14q-143 109 -143 332q0 297 219 577q188 240 387 309q63 23 121 23q100 0 162 -63q168 -76 168 -322q0 -227 -129 -471q-104 -197 -240 -318q-147 -131 -301 -139q100 -51 199 -102q113 -51 192 -51q25 0 49 4q25 4 27 -4 q4 -8 -6 -21q-59 -78 -185 -78q-61 0 -118.5 19.5t-253.5 132.5q-147 84 -265 84q-49 0 -100 -12q-14 -4 -20 4zM217 291q0 -238 156 -238q106 0 240.5 115.5t240.5 312.5q145 270 145 496q0 201 -116 201q-96 0 -236 -103q-154 -117 -274 -303q-156 -242 -156 -481z" />
<glyph unicode="R" horiz-adv-x="937" d="M16 88q0 45 15 100q39 139 163.5 392.5t260.5 466.5q-92 8 -131 81q-16 31 22 35q84 10 244 62q147 47 219 49h16q169 0 228 -166q20 -57 20 -117q0 -123 -83 -234.5t-235.5 -200.5t-324.5 -130q139 -174 195 -281q26 -49 26 -98q0 -43 -16.5 -68.5t-32.5 -3.5 q-186 256 -338 424q-92 -178 -182 -405q-12 -31 -33 -8q-33 35 -33 102zM340 543q285 63 469 223q164 141 164 272q0 27 -8 49q-20 51 -91 52q-49 0 -145 -31q-73 -24 -149 -49q0 -90 -78 -232q-27 -49 -80 -141t-82 -143z" />
<glyph unicode="S" horiz-adv-x="909" d="M-72 227q-31 37 4 47q27 8 58 9q86 0 149 -52q213 -172 355 -172q84 0 127 37q23 25 22 54q0 31 -27 53q-129 86 -256 170q-176 129 -176 260q0 188 183 375q145 150 317 223q86 37 152 37q68 0 112 -41q106 -98 107 -213q0 -76 -61.5 -161t-143.5 -230q-10 -18 -23 -19 q-27 0 -47 47q-18 41 -18 70q0 43 22 94q10 25 93 152q65 99 65 140q0 38 -43 38q-117 0 -321 -168q-230 -188 -230 -344q0 -80 139 -176q117 -72 232 -144q53 -37 53 -96q0 -72 -76 -158q-90 -102 -264 -102q-279 0 -504 270z" />
<glyph unicode="T" horiz-adv-x="825" d="M94 96q0 37 12 78q35 129 177 406q143 284 282 495q-70 -12 -125 -14h-23q-176 0 -210 117q-4 14 2 21t20 5q20 -2 45 -1q104 0 299 26q238 33 290 33h5q156 -4 195 -105q6 -14 0 -22q-6 -10 -25 -9q-27 2 -57 2q-98 0 -291 -32v-10q0 -85 -67 -207q-106 -193 -215 -385 q-141 -262 -242 -500q-12 -27 -33 -6q-39 37 -39 108z" />
<glyph unicode="U" horiz-adv-x="925" d="M0 221q0 55 16 123q70 287 476 899q10 16 24 17q12 0 25 -19q22 -35 22 -82q0 -82 -61 -203q-98 -174 -199 -350q-129 -233 -160 -366q-14 -57 -14 -101q0 -84 55 -104q20 -8 43 -8q174 0 389 415q260 504 449 803q10 18 25 19q40 0 40 -94q0 -85 -43 -181 q-61 -137 -206 -397q-162 -291 -256 -422q-156 -217 -357 -217h-5q-55 0 -107 22q-156 63 -156 246z" />
<glyph unicode="V" horiz-adv-x="825" d="M86 178q0 29 4 66q27 238 91.5 540.5t119.5 450.5q10 27 23 27q10 0 22 -15q41 -49 41 -131q0 -61 -20 -158q-56 -241 -162 -798q141 238 411 596q256 340 400 491q14 14 26 15q25 0 25 -62q0 -100 -117 -254q-160 -207 -319 -416q-242 -319 -391 -550q-14 -23 -29 -23 q-12 0 -29 12q-96 72 -96 209z" />
<glyph unicode="W" horiz-adv-x="1290" d="M80 131q0 51 16 121q55 231 159.5 530t180.5 445q12 25 29 24q12 0 22 -16q25 -43 25 -96q0 -72 -45 -195q-84 -225 -256 -741q307 502 717 997q27 33 51 -2q35 -51 35 -104q0 -57 -35 -162q-86 -260 -111 -330q-68 -217 -118 -409q152 246 401 583q244 326 383 473 q16 16 29 17q22 0 22 -53q0 -109 -121 -269q-156 -205 -313 -407q-231 -307 -387 -547q-16 -25 -33 -25q-12 0 -29 15q-75 69 -75 171q0 50 12 111q47 217 170 569q-340 -446 -596 -851q-14 -23 -33 -23q-14 0 -28 12q-72 63 -72 162z" />
<glyph unicode="X" horiz-adv-x="817" d="M-10 41q0 72 55 158q76 119 395 456q-57 399 -102 578q-4 14 3 22.5t24 6.5q111 -18 157 -183q16 -61 51 -286q317 324 467 462q14 12 25 13q27 0 27 -58q0 -121 -140 -252q-111 -104 -354 -344q66 -467 150 -608q10 -16 4 -29q-6 -10 -23 -8q-152 12 -211 262 q-25 104 -49 250q-285 -291 -436 -501q-20 -29 -33 4q-10 27 -10 57z" />
<glyph unicode="Y" horiz-adv-x="776" d="M86 80q0 45 16 98q31 104 127 297q8 500 60 758q8 45 43 22q72 -45 72 -195q0 -20 -1 -42q-10 -123 -30 -402q324 358 641 637q12 10 22 11q25 0 25 -58q0 -104 -129 -231q-125 -119 -248 -238q-172 -166 -328 -334q-119 -213 -194 -423q-10 -31 -39 -7q-37 31 -37 107z " />
<glyph unicode="Z" horiz-adv-x="903" d="M-14 123q0 25 22 59q127 188 438.5 488.5t538.5 455.5q-117 -25 -321 -59q-23 -2 -46 -2q-137 0 -172 106q-4 14 0 23q6 8 23 8h13q87 0 239 23q199 31 223 32q9 1 17 1q53 0 79 -35q39 -49 68 -133q6 -16 6 -27q0 -31 -53 -68q-221 -158 -498 -417q-262 -251 -452 -476 q225 57 362 70q15 1 29 1q115 0 151 -89q12 -31 -20 -31q-174 0 -483 -84q-39 -10 -56 -10q-29 0 -48 29.5t-48 83.5q-12 35 -12 51z" />
<glyph unicode="[" horiz-adv-x="647" d="M-43 39q88 252 270 616q213 426 400 674q33 45 78 60q53 18 143 22q57 2 82.5 -20.5t50.5 -55.5q8 -10 2 -22q-6 -10 -25 -13q-115 -7 -213 -38q-170 -248 -363.5 -614.5t-313.5 -665.5q84 20 112 20q66 0 105 -70q18 -35 -19 -36q-82 -6 -186 -48q-41 -16 -72 19 q-27 29 -50.5 67.5t-0.5 104.5z" />
<glyph unicode="\" horiz-adv-x="727" d="M322 1296q-2 23 10 31q12 6 30 -4q100 -53 134 -283q106 -758 188 -1093q4 -14 -2 -21.5t-23 -5.5q-86 16 -134 162.5t-115 556.5q-68 403 -88 657z" />
<glyph unicode="]" horiz-adv-x="653" d="M-115 -104q-29 29 13 43q82 27 221 45q358 809 680 1284q-35 -6 -103 -19q-55 -6 -112 74q-8 12 -9 23q0 18 29 22q227 35 242 35q39 0 59 -29q12 -25 37 -74q18 -37 -2 -69q-389 -590 -715 -1321q-23 -49 -64.5 -55.5t-119.5 -20.5q-61 -10 -94 11.5t-62 50.5z" />
<glyph unicode="^" horiz-adv-x="546" d="M145 850q0 43 27 86q88 141 231 307q18 23 46 4q43 -31 51 -100q23 -193 59 -330q8 -29 -18 -31q-88 -6 -115 91q-23 84 -35 147q-68 -80 -182 -238q-16 -27 -37 -8q-27 25 -27 72z" />
<glyph unicode="_" horiz-adv-x="749" d="M-160 -227q10 33 54.5 56.5t107.5 23.5h885q37 0 24 -29q-33 -80 -163 -80h-885q-31 0 -23 29z" />
<glyph unicode="`" horiz-adv-x="157" d="M0 1526q-4 14 4.5 20t20.5 2q76 -20 100 -100q10 -66 31 -193q2 -14 -4.5 -19t-18.5 -3q-47 12 -78 82q-10 25 -55 211z" />
<glyph unicode="a" horiz-adv-x="833" d="M0 172q0 150 109 307q117 170 239 258q104 76 191 76q63 0 96 -42q29 -37 29 -92v-13q45 84 73 125q16 23 31 22q23 0 37 -47q10 -35 10 -64q0 -63 -31 -127q-74 -123 -196 -354q-37 -84 -37 -137q0 -61 50 -61h3q59 4 139 92q70 78 129 192q18 35 33 2q7 -16 7 -35 q0 -38 -25 -92q-41 -90 -125 -153q-83 -66 -161 -66h-9q-168 10 -168 168q-125 -160 -256 -160q-80 0 -124 55.5t-44 145.5zM143 113q0 -72 47 -74h1q115 0 294 309q121 209 121 307q0 47 -33 52h-5q-51 0 -140 -84q-100 -92 -182 -226q-102 -164 -103 -284z" />
<glyph unicode="b" horiz-adv-x="720" d="M-43 86q0 51 23 121q41 129 267 553t331 571q14 20 26 21q20 0 33 -43q10 -33 10 -60q0 -90 -72 -223q-59 -98 -182 -311q96 86 176 86q143 0 144 -191q0 -135 -74 -301q-150 -332 -342 -332q-156 0 -215 146q-20 -45 -59 -135q-14 -33 -33 -6q-33 45 -33 104zM123 211 q10 -139 108 -139q119 0 263 284q84 168 84 277q0 80 -39 84h-8q-63 0 -142 -82q-125 -129 -266 -424z" />
<glyph unicode="c" horiz-adv-x="636" d="M4 248q0 113 62 235q76 152 186 242q100 82 188 82q37 0 66 -16q80 -47 112 -113q12 -25 13 -53q0 -45 -35 -121q-55 -125 -57 -131q-12 -33 -43 -17q-61 31 -62 111q0 31 12 68q8 25 39 92q25 53 25 73q0 23 -21 23q-41 0 -122 -84q-86 -90 -146 -209q-65 -131 -65 -239 q0 -163 116 -164h3q211 0 401 290q8 12 18 13q12 0 19 -15q4 -10 4 -21q0 -39 -41 -101q-59 -92 -170 -157t-225 -67h-7q-126 0 -197 76q-73 78 -73 203z" />
<glyph unicode="d" horiz-adv-x="821" d="M-18 172q0 147 106 305q113 166 236 254q106 76 192 76q59 0 92 -40q31 -38 31 -92v-7q229 438 340 594q14 20 27 20q14 0 22 -20q14 -37 14 -78q0 -90 -77 -232q-148 -256 -398 -731q-41 -88 -41 -141q0 -57 51 -57h3q59 4 137 90q70 78 129 192q18 35 33 2q8 -17 8 -39 q0 -37 -25 -88q-43 -88 -125 -151q-83 -64 -161 -64h-9q-166 8 -166 164q-127 -158 -254 -158q-80 0 -122.5 55.5t-42.5 145.5zM123 115q0 -74 47 -76h3q128 0 286 305q119 229 119 315q0 43 -29 43h-2q-49 0 -141 -86q-100 -90 -183 -221q-100 -162 -100 -280z" />
<glyph unicode="e" horiz-adv-x="655" d="M8 248q0 115 62 235q78 154 188 246q102 82 191 82q39 0 65 -16q74 -43 121 -107q18 -25 18 -70q0 -106 -84 -208q-102 -125 -219 -125h-2q-81 0 -160 65q-28 -81 -28 -150q0 -167 121 -173h14q204 0 393 290q20 31 35 -2q5 -12 5 -27q0 -40 -40 -100 q-66 -96 -175.5 -157.5t-225.5 -63.5h-6q-126 0 -199 77q-74 79 -74 204zM207 395q34 -22 66 -22h3q80 0 175 125q90 119 90 190q0 31 -27 31q-51 0 -137 -80q-94 -88 -154 -209q-6 -12 -16 -35z" />
<glyph unicode="f" horiz-adv-x="501" d="M-188 -379q0 274 290 848q209 416 469 803q12 16 27 16q18 0 25 -18q12 -37 12 -74q0 -96 -82 -233q-113 -185 -336 -586q107 -34 107 -231v-7q0 -25 -5 -69q123 82 213 260q10 18 23 18q12 0 20 -20q4 -11 4 -27q0 -37 -24 -96q-18 -45 -84 -109q-78 -76 -162 -104 q-25 -156 -86 -310.5t-135 -246.5q-59 -74 -108 -74q-35 0 -74 33q-94 82 -94 227zM-86 -465q0 -70 29 -70q45 0 126 162t126 350q-88 8 -125 82q-156 -369 -156 -524zM152 154v-13q0 -93 55 -104q16 78 18 147v16q0 44 -9 80q-11 42 -23 37q-14 -6 -27 -67q-12 -53 -14 -96 z" />
<glyph unicode="g" horiz-adv-x="821" d="M-147 -549q0 45 16 96q80 250 438 387q20 47 60 142q-102 -102 -207 -103q-78 0 -122 54.5t-44 144.5q0 147 106 303q113 166 236 254q106 76 194 76q59 0 91 -39q30 -37 30 -89v-7l68 112q14 25 31 25q25 0 38 -45q10 -35 11 -66q0 -61 -33 -127q-94 -184 -277 -569 q217 109 367 307q10 12 21 12q10 -2 14 -16q1 -6 1 -12q0 -40 -42 -107q-102 -162 -397 -268q-244 -594 -424 -666q-20 -8 -39 -8q-45 0 -80 51q-57 82 -57 158zM-55 -604q0 -35 14 -35q37 0 127 137q100 149 186 352q-156 -90 -249 -243q-78 -123 -78 -211zM135 115 q0 -76 49 -78h1q111 0 288 307q121 209 121 307q0 47 -33 49h-4q-49 0 -143 -86q-97 -90 -178 -219q-100 -160 -101 -280z" />
<glyph unicode="h" horiz-adv-x="772" d="M-39 203q53 152 297 565q240 408 367 567q14 16 26 17q37 0 37 -92q0 -98 -72 -218q-20 -33 -245 -385q148 145 234 144h11q39 -4 70 -43t31 -92q0 -41 -21 -80q-72 -119 -190 -346q-33 -74 -33 -129q0 -82 62 -82h6q59 2 137 94q72 80 123 188q6 14 18 15q12 0 19 -13 q7 -14 7 -33q0 -38 -28 -94q-45 -90 -127 -153q-88 -66 -176 -66q-180 0 -180 166q0 59 26 137q35 100 132 262q86 141 86 160q0 6 -5 8q-4 2 -10 2q-35 0 -141 -81q-139 -106 -219 -238q-125 -205 -199 -389q-12 -33 -35 -8q-32 36 -32 91q0 54 24 126z" />
<glyph unicode="i" horiz-adv-x="411" d="M4 268q37 106 121 264q80 147 141 234q16 23 31 22q23 0 37 -45q10 -33 10 -61q0 -61 -31 -127q-66 -115 -172 -332q-32 -78 -32 -128v-3q0 -63 48 -63h5q66 4 145 90q72 80 121 190q16 31 33 0q10 -18 10 -41q0 -37 -25 -86q-45 -94 -131 -153.5t-174 -59.5 q-161 0 -161 164q0 61 24 135zM326 905q0 33 18 64.5t49 31.5q51 0 82 -61q14 -29 14 -59q0 -94 -69 -95q-45 0 -74 48q-20 35 -20 71z" />
<glyph unicode="j" horiz-adv-x="364" d="M-629 -586q0 43 17 88q86 252 444 389q252 606 432 881q16 25 29 25q23 0 37 -43q10 -31 10 -60q0 -63 -33 -135q-99 -197 -289 -598q231 121 388 352q23 33 32 -2q3 -10 3 -21q0 -39 -33 -100q-100 -178 -426 -315q-256 -600 -431 -666q-25 -8 -43 -8q-41 0 -73 47 q-63 94 -64 166zM-516 -684q35 0 129 139q100 151 184 350q-154 -88 -250 -239q-79 -123 -79 -211q0 -39 16 -39zM326 911q0 33 17 65t50 32q51 -1 78 -64q12 -31 12 -59q0 -92 -65 -92q-47 0 -74 49q-18 33 -18 69z" />
<glyph unicode="k" horiz-adv-x="751" d="M-39 84q0 55 25 137q47 150 243 531q205 401 336 577q14 20 29 21q41 0 41 -95q0 -84 -78 -217.5t-184 -326.5q131 127 231 127q72 0 119 -101q22 -47 22 -92q0 -84 -65 -147q-119 -117 -285 -166q6 -125 45 -206t99 -87h7q55 0 130 88q68 78 121 188q10 20 22 21 q10 0 19 -19q6 -15 6 -33q0 -39 -31 -91q-126 -216 -303 -216h-2q-117 2 -184 95q-76 101 -76 291v10q0 29 7 37t36 18q158 51 268 152q94 86 94 145q0 35 -43 35q-70 0 -181.5 -85t-201.5 -241q-78 -135 -202 -434q-12 -31 -37 -4q-27 31 -27 88z" />
<glyph unicode="l" horiz-adv-x="471" d="M8 178q0 53 15 119q53 252 208 524q139 242 310 420q27 27 49 27q20 0 39 -17q59 -53 59 -139q0 -39 -12 -86q-45 -176 -193 -358q-130 -160 -282 -258q-72 -176 -72 -281q0 -92 59 -98h9q69 0 159 86q90 88 154 211q10 20 25 20q14 0 20 -20q4 -15 4 -32q0 -41 -24 -95 q-31 -66 -121 -140q-111 -88 -216 -88h-5q-184 4 -185 205zM238 498q168 135 280 331q92 158 92 228q0 10 -4 12q-2 1 -4 1q-24 0 -112 -131q-96 -142 -203 -343q-33 -59 -49 -98z" />
<glyph unicode="m" horiz-adv-x="1157" d="M-59 82q0 47 20 108q33 98 130 283.5t192 327.5q23 35 43 0q25 -39 24 -94q1 -57 -26 -125q72 84 168 154q93 69 146 69h3q39 -2 63.5 -43t24.5 -96q0 -33 -8 -62q80 78 164 131q89 60 137 60h2q72 -2 72 -115q0 -55 -21.5 -108.5t-89.5 -163.5q-78 -125 -100 -168 q-31 -61 -31 -115q0 -94 73 -94h3q100 2 256 280q18 31 37 4q8 -12 4 -53q-6 -43 -23 -76q-43 -90 -131 -154.5t-176 -64.5q-94 0 -146.5 49.5t-52.5 128.5q0 61 31 131q37 82 141 246q90 139 91 158q0 4 -5 6t-11 2q-56 0 -208 -151q-188 -188 -356 -560q-10 -23 -25 -22 q-12 0 -22 12q-39 33 -39 107q0 66 35 151q31 80 149 269q102 164 103 190q0 6 -4 8q-3 1 -8 1q-25 0 -81 -38q-78 -53 -167 -151q-152 -166 -302 -514q-6 -14 -14 -19q-10 -4 -24 9q-41 37 -41 102z" />
<glyph unicode="n" horiz-adv-x="786" d="M-68 88q0 45 19 105q31 94 131 278q96 178 197 326q23 33 43 0q22 -37 22 -88q0 -52 -16 -107q78 84 159 141q84 60 132 60h8q39 -6 68.5 -46t29.5 -93q0 -39 -18 -78q-72 -121 -191 -348q-33 -74 -33 -129q0 -82 60 -82h6q111 6 262 282q16 31 35 2q9 -14 9 -35 q1 -36 -27 -93q-44 -89 -128 -152q-90 -68 -176 -68q-182 0 -182 168q0 61 27 137q33 100 131 264q84 141 84 160q0 8 -4 10q-3 1 -7 1q-24 0 -88 -39q-88 -57 -176 -154q-123 -133 -299 -520q-14 -33 -39 -8q-39 39 -39 106z" />
<glyph unicode="o" horiz-adv-x="679" d="M10 244q0 133 86 288q61 111 146 183q92 78 180 84h12q76 0 127 -70l70 -82q28 -41 28 -107q0 -17 -2 -36q0 -14 -4 -47q6 0 19.5 2t21.5 2q22 -1 6 -21q-20 -23 -55 -26q-35 -139 -121 -262q-94 -133 -202 -170q-35 -12 -70 -13q-111 0 -189 103q-53 72 -53 172z M129 152q0 -102 68 -103q121 0 241 227q45 86 72 164q-16 6 -39 25q-92 72 -94 180q-96 -82 -158 -192q-90 -162 -90 -301zM477 614q0 -73 47 -118q19 73 19 122q0 16 -2 29q-6 43 -29 43q-35 0 -35 -76z" />
<glyph unicode="p" horiz-adv-x="796" d="M-254 -358q0 53 25 133q45 147 240.5 518t293.5 502q14 18 27 18q14 0 22 -20q13 -33 13 -76v-17q104 90 192 91q61 0 107 -48q57 -59 57 -159q0 -121 -80 -295q-94 -207 -215 -281q258 16 389 299q8 18 21 19q14 0 18 -19q3 -15 3 -30q0 -50 -30 -105 q-111 -203 -364 -219q-23 -1 -45 -1q-160 0 -244 77q-59 55 -70 137q-162 -297 -299 -612q-14 -33 -34 -5q-27 39 -27 93zM178 180q0 -119 70 -119q51 0 126 86t138 218q78 160 78 280q0 82 -43 82q-45 0 -119 -67.5t-137 -172.5q-23 -36 -70 -116q-43 -109 -43 -191z" />
<glyph unicode="q" horiz-adv-x="763" d="M0 170q0 150 109 307q113 166 237 254q106 76 193 76q63 0 96 -43q29 -38 29 -92v-13q55 98 88 132q14 14 24 14q12 0 27 -21q14 -31 14 -71q0 -84 -59 -191q-188 -336 -252 -454q-174 -330 -279 -578q-14 -35 -37 -8q-34 40 -34 89q0 42 16 99q43 145 143 350 q-76 -51 -147 -51q-80 0 -124 55.5t-44 145.5zM143 109q0 -76 47 -76q117 0 295 311q121 211 121 307q0 49 -33 51h-5q-50 0 -140 -84q-100 -92 -182 -223q-102 -164 -103 -286z" />
<glyph unicode="r" horiz-adv-x="675" d="M-96 39q0 66 40 142.5t261 391.5q-39 25 -39 76q0 72 65 160q66 82 111 84h2q39 0 39 -62q0 -69 -45 -184q92 12 211 94q37 25 55 4q55 -63 55 -129q0 -41 -26 -71q-186 -211 -225 -340q-14 -47 -15 -88q0 -98 66 -101h3q56 0 124 78q63 76 116 193q14 33 29 2 q9 -19 9 -44q0 -36 -19 -83q-35 -88 -114 -146q-74 -55 -151 -55h-10q-82 4 -128 56.5t-46 134.5q0 176 265 479q-119 -78 -240 -78q-86 -147 -172 -295q-117 -211 -141 -326q-8 -37 -35 -10q-45 47 -45 117z" />
<glyph unicode="s" horiz-adv-x="618" d="M-27 254q0 102 60 152q14 10 22 10q16 0 21 -33q2 -24 4 -47q158 215 235 352q12 102 74 158q45 41 84 41q37 0 37 -35q0 -16 -49 -104q-4 -41 -4 -86q0 -72 14 -213q8 -108 8 -168v-23q-8 -158 -92 -215q172 63 275 285q8 16 20 14q12 0 18 -14q6 -13 6 -30 q0 -41 -34 -105q-119 -215 -363 -226h-20q-199 0 -283 154q-33 59 -33 133zM98 225q47 -186 138 -186q88 0 88 252q-1 39 -13 266q-72 -131 -213 -332z" />
<glyph unicode="t" horiz-adv-x="438" d="M0 190q0 80 39 170q67 163 217 437q-94 0 -133 53q-10 14 -10 24q0 18 32 17q17 -1 36 -1q57 0 134 9q104 184 156 254q14 18 29 18q12 0 20 -18q14 -37 15 -76q0 -66 -41 -155h6q38 0 81 -22q46 -24 46 -60q0 -18 -31 -19q-20 3 -44 3q-49 0 -116 -11 q-94 -162 -137 -242q-86 -154 -137 -266q-39 -88 -39 -162q0 -115 80 -118h3q65 0 144 88q76 82 137 206q10 20 25 21q12 0 18 -21q3 -11 3 -25q-1 -36 -23 -88q-32 -72 -111 -145q-105 -92 -207 -92h-8q-78 2 -131 62.5t-53 158.5z" />
<glyph unicode="u" horiz-adv-x="827" d="M-23 131q0 63 25 139q80 238 283 523q13 18 27 18q13 0 26 -16q27 -41 27 -93q0 -80 -66 -184q-94 -150 -160 -301q-28 -66 -28 -114q0 -60 39 -64h5q102 0 298 315q63 102 151 264q70 129 103 175q18 25 30 24q25 0 39 -47q10 -37 10 -65q0 -63 -30 -130 q-74 -123 -195 -350q-35 -76 -35 -129q0 -69 56 -69h8q117 6 270 282q8 14 19 15q12 2 18 -13q8 -18 8 -39q0 -39 -26 -90q-45 -90 -132.5 -154.5t-175.5 -64.5q-172 0 -172 162q0 21 2 41q-145 -193 -282 -193h-13q-129 8 -129 158z" />
<glyph unicode="v" horiz-adv-x="614" d="M23 147q16 297 133 650q12 41 41 16q63 -55 63 -147q0 -45 -14 -111q-29 -113 -56 -223q-33 -136 -51 -273q109 178 280 406.5t277 337.5q14 14 25 14q10 0 14 -22q1 -5 1 -10q0 -60 -85 -169q-104 -125 -207 -249q-156 -193 -278 -387q-20 -31 -41 -21q-61 31 -84 70 q-19 32 -19 91q0 13 1 27z" />
<glyph unicode="w" horiz-adv-x="1003" d="M-29 129q0 66 27 141q90 258 285 523q27 35 49 2q30 -40 30 -92q0 -79 -67 -185q-115 -182 -168 -311q-29 -72 -29 -117q0 -53 34 -53h3q53 2 123 92q29 39 145 225q94 176 259 439q18 25 30 24q8 0 21 -12q26 -34 26 -95q0 -68 -30 -135q-74 -125 -199 -356 q-39 -80 -39 -131q0 -55 49 -57h2q53 0 135 89q84 91 168 236q23 205 107 342q63 106 112 115q20 4 28.5 -16.5t2.5 -53.5q-27 -133 -178 -389q-229 -387 -416 -387h-6q-63 1 -99 51q-32 45 -32 105v14q-125 -160 -239 -160h-11q-123 8 -123 152z" />
<glyph unicode="x" horiz-adv-x="800" d="M41 -14q8 90 123 213q51 55 192 170q-51 346 -75 348h-2q-23 0 -68 -53q-57 -63 -98 -158q-6 -14 -17 -14q-12 -2 -16 10q-5 14 -5 31q1 35 19 81q28 70 96 127.5t138 57.5q102 0 133 -146q16 -82 28 -176q201 164 308 301q16 20 28 21q12 0 13 -25q0 -80 -111 -207 q-43 -47 -223 -194q12 -86 35 -223q23 -111 65 -113h4q91 0 219 270q6 14 17 15q10 2 14 -11q7 -18 7 -38q0 -40 -25 -91q-47 -94 -122 -154.5t-149 -60.5q-156 0 -190 234q-2 18 -8 59q-170 -143 -283 -280q-14 -16 -31 -17q-18 0 -16 23z" />
<glyph unicode="y" horiz-adv-x="768" d="M-207 -543q0 43 17 94q82 248 438 388q20 49 63 147q-110 -113 -210 -113h-13q-131 10 -131 156q0 66 27 141q88 254 278 518q12 18 25 18t26 -18q29 -39 29 -88q0 -76 -68 -184q-104 -166 -157 -299q-29 -70 -29 -117q0 -55 39 -59h5q104 0 282 303q88 168 248 440 q25 37 51 15q26 -34 26 -93q0 -70 -34 -137q-182 -352 -273 -563q219 119 363 316q8 12 18 10q10 0 14 -15q2 -8 2 -18q0 -40 -38 -100q-98 -154 -394 -275q-117 -276 -194 -413q-123 -213 -236 -256q-20 -8 -39 -9q-43 0 -78 52q-57 86 -57 159zM-117 -600q0 -37 17 -37 q37 0 129 139q102 154 184 351q-156 -90 -250 -240q-80 -125 -80 -213z" />
<glyph unicode="z" horiz-adv-x="722" d="M0 -342q92 213 420 348q5 25 5 45q0 80 -81 80q-96 0 -192 -68q-27 -18 -36.5 5.5t-9.5 50.5q0 84 99 139q184 106 295 225q100 109 100 183q0 57 -59 57q-80 0 -211 -84q-139 -88 -234 -207q-18 -23 -28 2q-6 16 -7 39q0 100 89 186q158 154 352 154q92 0 147 -78 q39 -55 39 -121q0 -74 -47 -151q-78 -133 -303 -275h13q73 0 116 -41q41 -37 53 -100q147 78 246 264q6 12 18 13q12 2 19 -13q5 -11 5 -25q0 -38 -34 -102q-61 -113 -250 -194q0 -154 -123 -357q-113 -184 -219 -243q-33 -18 -57 -19q-41 0 -78 47q-67 81 -67 150 q0 45 20 90zM74 -477q0 -39 18 -39q43 0 152.5 158t156.5 297q-158 -88 -251 -226q-76 -113 -76 -190z" />
<glyph unicode="{" horiz-adv-x="395" d="M2 125q0 41 16 84q29 70 96.5 175t81 139t13.5 59q0 27 -21 47q-12 16 -8 30q2 16 23 19q63 4 106 65q27 39 102.5 205t114.5 223q63 94 179 95q61 0 61 -19q0 -12 -16 -22q-66 -45 -154 -209q-57 -117 -117 -234q-77 -141 -194 -147q39 -43 39 -96q0 -55 -39 -133 q-59 -100 -119 -201q-74 -135 -62 -195q6 -31 -12 -30q-8 0 -18 6q-72 45 -72 139z" />
<glyph unicode="|" horiz-adv-x="458" d="M-2 29q0 55 25 125q53 154 264 558t346 607q12 18 26 18q37 0 37 -90q0 -94 -82 -237q-426 -756 -553 -1071q-12 -31 -34 -5q-29 31 -29 95z" />
<glyph unicode="}" horiz-adv-x="626" d="M-14 -2q0 10 18 22q59 37 146 199q59 119 118 236q76 137 191 149q-35 37 -35 92q0 57 35 125q57 98 114 195q76 135 76 196q0 12 -2 23q-6 20 2 27q8 6 29 -2q84 -33 84 -123q0 -29 -10 -62q-29 -84 -111 -211t-92 -155.5t-10 -53.5q0 -27 14 -47t14 -24q0 -20 -37 -29 q-49 -12 -94 -70q-29 -39 -98 -192q-74 -162 -111 -217q-63 -96 -174 -96q-68 0 -67 18z" />
<glyph unicode="~" horiz-adv-x="2152" d="M2 176q0 147 107 305q113 166 235 254q106 74 193 74q59 0 90.5 -38t31.5 -93q41 68 72 108q16 23 31 23q23 0 37 -47q12 -35 12 -64q0 -61 -31 -125q-72 -123 -192 -356q-33 -72 -33 -123q0 -68 57 -61q94 10 211 180q113 158 199 387q-63 23 -64 90q0 74 63.5 160 t113.5 90q41 2 41 -68t-39 -188q98 10 225 96q43 29 61 6q57 -70 58 -137q0 -43 -29 -74q-180 -198 -233 -354q-18 -55 -19 -100q0 -90 68 -94q86 -6 207 174q113 166 198 401q-61 23 -61 90q0 74 63.5 161t110.5 89q43 2 43 -68t-39 -188q98 10 225 98q41 29 62 4 q55 -68 55 -133q0 -43 -29 -75q-180 -209 -231 -357q-18 -53 -19 -98q0 -94 70 -98q59 -4 130 77.5t122 202.5q6 14 16 15q10 0 15 -13q25 -63 -6 -133q-41 -92 -123 -151.5t-164 -57.5q-88 2 -137.5 58.5t-49.5 144.5q0 51 17 106q47 152 256 392q-123 -78 -246 -78 q-242 -618 -500 -625q-86 -2 -134 53.5t-48 145.5q0 53 19 110q45 145 256 392q-119 -80 -246 -80q-236 -592 -502 -617q-84 -8 -129 40t-41 130q-133 -162 -260 -162q-78 0 -122 55.5t-44 143.5zM145 117q0 -76 48 -76q114 0 290 307q119 209 119 307q0 47 -31 50 q-51 4 -147 -85.5t-178 -220.5q-100 -162 -101 -282z" />
<glyph unicode="&#xa2;" horiz-adv-x="722" d="M123 453q0 113 70 233q82 141 198 227q109 78 201 78q21 0 37 -4q39 74 123 211q12 18 20 19q29 0 29 -60q0 -57 -84 -223q74 -63 74 -129q0 -45 -37 -119q-31 -63 -64 -127q-10 -27 -22 -27q-10 0 -25 11q-49 33 -49 92q0 35 17.5 77t37.5 85q25 51 25 73q0 29 -33 29 q-63 0 -168 -94q-113 -102 -170 -230q-45 -100 -45 -180q0 -143 115 -143q57 0 120.5 44t106.5 114q18 29 33 4q10 -16 10 -39q0 -49 -39 -99q-78 -98 -207 -98q-39 0 -78 10q-68 -127 -94 -188q-14 -31 -28 -6q-14 23 -15 55q0 41 23 96q2 10 31 80q-113 78 -113 228z" />
<glyph unicode="&#xa3;" horiz-adv-x="727" d="M139 596q4 6 17 6q57 -2 182 31q-29 90 -29 121q0 106 127 219q104 94 211 94q66 0 121 -41q76 -55 76 -137q0 -84 -63.5 -147.5t-129.5 -63.5q-74 0 -41 35q53 55 91 124.5t38 108.5q0 29 -28 29q-68 0 -193 -110.5t-110 -219.5q27 8 63 8q98 2 125 -80q6 -20 -12 -20 q-53 0 -154 -14q2 -16 2 -33q0 -74 -51 -129q33 4 90 10q117 10 156 -80q10 -25 -17 -24q-154 -6 -356 -72q-37 -12 -57 12q-37 45 -52 64q-25 31 11 49q164 88 200 184q-49 -14 -77 -16q-102 -8 -138 71q-6 12 -2 21z" />
<glyph unicode="&#xa5;" horiz-adv-x="1140" d="M-10 190q0 80 37 170q70 168 217 433q-39 2 -84 20q-55 25 -56 59q0 20 31 19q53 -4 168 6q115 205 156 254q12 20 26 20q37 0 37 -94q0 -68 -43 -162q37 -2 78 -26q51 -27 51 -62q0 -16 -35 -14q-68 4 -147 -2q-70 -121 -139 -242q-88 -158 -137 -266q-39 -86 -39 -160 q0 -119 82 -116q94 2 232 171t232 402q-55 23 -55 84q0 74 68.5 165t117.5 93q43 2 43 -61q0 -72 -51 -195q100 8 224 94q39 27 59 4q59 -66 59 -133q0 -41 -28 -73q-188 -213 -236 -357q-16 -51 -16 -94q0 -100 67 -102q59 -2 131 79.5t125 202.5q16 37 31 0 q23 -55 -10 -133q-39 -92 -121 -152.5t-166 -56.5q-88 4 -136 59.5t-48 143.5q0 51 18 108q49 160 256 390q-125 -78 -250 -78q-115 -260 -252 -426q-162 -193 -311 -193q-78 0 -132 60.5t-54 160.5z" />
<glyph unicode="&#xa8;" horiz-adv-x="1159" d="M-190 -383q0 35 6 76q39 301 313 833q205 393 442 746q12 18 27 18q14 0 23 -20q14 -35 14 -74q0 -90 -84 -233q-113 -185 -336 -586q145 -39 133 -254q0 -18 -4 -57q193 121 338 534q-63 23 -64 92q0 74 63.5 160t113.5 90q41 2 41 -68q0 -72 -39 -190q102 12 225 96 q41 29 61 6q57 -66 58 -133q0 -45 -29 -75q-178 -197 -233 -355q-18 -53 -19 -96q0 -98 70 -102q59 -4 133 81q68 80 121 201q14 33 30 0q25 -51 -10 -133q-39 -92 -119.5 -150.5t-166.5 -56.5q-88 2 -136.5 57.5t-48.5 143.5q0 51 19 108q49 160 254 388q-123 -76 -244 -76 q-72 -205 -178 -359q-119 -174 -250 -227q-27 -160 -93.5 -320.5t-142.5 -254.5q-55 -70 -108 -70q-43 0 -90 43q-90 80 -90 217zM-86 -465q0 -70 29 -70q45 0 126 163.5t126 351.5q-92 10 -125 79q-156 -371 -156 -524zM150 154q0 -113 57 -119q14 74 18 149q2 55 -9 96.5 t-23 36.5q-16 -6 -29.5 -64t-13.5 -99z" />
<glyph unicode="&#xa9;" horiz-adv-x="1126" d="M176 555q-10 266 193 506q180 209 374 252q47 10 88 10q115 0 183 -70q182 -78 182 -305q0 -139 -70 -280q-76 -154 -204.5 -241t-270.5 -81q-117 4 -184 72q-63 61 -64 164q0 106 70 221q78 129 174 207q92 72 166 71q33 0 55 -14q100 -61 101 -143q0 -41 -31 -111 q-29 -57 -57 -117q-12 -29 -39 -16q-47 23 -47 86q0 33 14 68q6 14 35 77q20 43 20 60q0 18 -18 18q-37 0 -103 -63q-74 -70 -133 -170q-70 -119 -69 -215q0 -125 102 -131q100 -6 203 77q92 78 160 207q80 154 79 305q0 145 -94 199q-47 27 -110 27q-115 0 -238 -78 q-137 -86 -233 -234q-123 -188 -123 -383q0 -199 121 -270q63 -37 145 -37q117 0 221 68q14 10 21 8q8 -2 6 -20q-4 -68 -94 -105q-63 -27 -134 -27q-104 0 -198 58q-188 113 -199 350z" />
<glyph unicode="&#xab;" horiz-adv-x="1335" d="M-188 -379q0 276 288 848q213 420 471 801q14 20 27 20q37 0 37 -94q0 -88 -80 -235q-115 -182 -340 -582q109 -35 107 -238q0 -47 -7 -86q156 76 263 277q160 303 268 461q12 18 26 18q23 0 33 -47q8 -35 6 -64q102 88 189 88q61 0 106 -47q57 -59 58 -159 q0 -121 -80 -291q-96 -205 -215 -281q248 12 387 297q8 16 22 17q14 0 19 -17q14 -51 -31 -133q-109 -203 -360 -217q-193 -12 -285 74q-57 51 -70 135q-174 -319 -317 -651q-14 -35 -35 -9q-29 39 -29 95q0 53 23.5 131t136.5 311q-63 -39 -123 -53q-25 -156 -86 -308.5 t-135 -244.5q-61 -74 -109 -74q-33 0 -73 33q-92 76 -92 225zM-86 -461q0 -70 31 -69q45 0 126 162t126 348q-90 10 -127 81q-156 -369 -156 -522zM150 154q0 -105 59 -119q8 51 18 147q2 57 -10 99.5t-24 35.5q-14 -8 -28.5 -66t-14.5 -97zM723 180q0 -115 70 -114 q53 0 124.5 85t135.5 214q78 160 77 278q0 82 -43 82t-115.5 -67.5t-135.5 -172.5q-23 -36 -72 -120q-41 -109 -41 -185z" />
<glyph unicode="&#xad;" d="M92 516q-4 16 0 23q4 6 21 6q63 -4 184 6q137 10 172 10q131 0 154 -106q4 -14 -1.5 -22.5t-21.5 -6.5q-33 2 -65 2q-61 0 -162 -10q-92 -12 -131 -10q-129 6 -150 108z" />
<glyph unicode="&#xae;" horiz-adv-x="1161" d="M150 559q0 266 206 498q184 205 377 246q49 10 92 10q111 0 181 -68q197 -88 196 -338q0 -124 -49 -243q-55 -135 -148.5 -207t-191.5 -72q-203 0 -264 240q-57 -102 -113 -219q-14 -31 -33 -7q-27 35 -26 80q0 43 22 101q51 135 201 381q-29 20 -43 49q-12 25 16 30 q41 8 140 45q86 31 131 33q117 4 155 -108q12 -35 13 -70q0 -74 -54 -143q-92 -119 -280 -170q20 -82 60 -129t81 -49q113 -4 221 233q57 127 58 250q0 209 -133 266q-41 16 -93 16q-111 0 -235 -75q-137 -82 -242 -230q-137 -190 -137 -393q0 -188 117 -250q51 -27 117 -26 q139 0 241 90q31 27 31 -6q0 -74 -82 -121q-66 -39 -152 -39t-159 33q-221 96 -221 362zM610 733q135 37 234 113q90 72 90 125q0 30 -35 30q-23 0 -147 -40q-45 -72 -142 -228z" />
<glyph unicode="&#xb4;" horiz-adv-x="1470" d="M-150 -541q0 45 17 95q80 244 440 389q29 73 58 139q-106 -106 -209 -107q-78 0 -121 55.5t-43 145.5q0 150 108 305q115 166 236 254q106 76 190 76q59 0 92 -39t31 -96q25 39 70 112q14 23 31 23q23 0 36 -43q10 -33 11 -61q0 -63 -35 -134q-90 -178 -268 -555 q338 174 491 582q-53 25 -53 84q0 76 67.5 166t116.5 92q43 2 43 -61q0 -68 -47 -197q109 18 221 96q39 27 60 4q59 -66 59 -133q0 -41 -29 -73q-188 -213 -235 -357q-16 -51 -17 -94q0 -100 68 -102q59 -2 131 79.5t125 202.5q16 37 31 0q23 -55 -10 -133 q-39 -92 -121 -152.5t-166 -56.5q-88 4 -136.5 59.5t-48.5 143.5q0 51 19 108q47 152 256 390q-125 -80 -248 -80q-106 -242 -227 -383q-152 -176 -387 -273q-121 -283 -197 -413q-123 -215 -235 -260q-20 -8 -39 -9q-45 0 -78 52q-57 88 -58 159zM-59 -596q0 -39 16 -39 q37 0 129 139q100 152 186 353q-158 -92 -252 -244q-80 -123 -79 -209zM135 119q0 -76 47 -76q109 0 289 307q121 207 121 307q0 47 -31 50q-51 4 -147.5 -86.5t-177.5 -221.5q-100 -162 -101 -280z" />
<glyph unicode="&#xb8;" horiz-adv-x="1329" d="M8 250q0 131 86 287q61 111 149.5 184.5t178.5 79.5q80 6 137 -70q35 -39 70 -80q35 -49 28 -145q-2 -31 -2 -25q145 37 217 310q12 43 43 16q66 -55 66 -145q0 -45 -16 -109q-29 -111 -58 -219q-31 -129 -47 -268q96 158 264 385q195 266 295 354q10 8 17 8q10 0 14 -22 q8 -58 -84 -177q-102 -125 -205 -247q-156 -195 -276 -385q-20 -33 -43 -21q-59 29 -82 69t-19 117q4 100 54 345q-53 -59 -154 -70q-37 -158 -135 -289q-121 -158 -262 -158q-104 0 -181 101q-55 72 -55 174zM125 158q0 -100 68 -101q121 0 241 224q49 90 74 168 q-55 29 -94 85t-39 115q-86 -70 -158 -194q-92 -158 -92 -297zM475 645q-12 -84 49 -139q20 84 13 147q-6 43 -27 43q-27 0 -35 -51z" />
<glyph unicode="&#xbb;" horiz-adv-x="1517" d="M8 244q0 133 88 288q61 111 150.5 186t177.5 81q82 6 137 -70q35 -39 70 -80q35 -49 28 -145q0 -2 -6 -33q166 2 371 317q12 18 25 19q16 0 24 -23q18 -47 17 -92q104 96 194 96q61 0 105 -49q53 -59 53 -157q0 -121 -80 -293q-98 -209 -211 -279q254 12 385 293 q8 18 20 19q14 0 21 -19q12 -39 -18 -110q-101 -222 -373 -240q-188 -12 -287 78q-59 55 -65 133q-176 -324 -322 -653q-16 -37 -33 -7q-29 39 -28 95q0 53 24 131q61 199 363 745q-84 -63 -193 -53q-39 -158 -137 -289q-119 -162 -260 -162q-106 0 -185 101q-55 70 -55 172 zM129 152q0 -100 66 -101q119 0 241 225q49 91 76 177q-131 70 -135 194q-92 -82 -158 -194q-90 -158 -90 -301zM477 641q-14 -80 49 -137q20 82 13 143q-6 45 -27 45q-27 0 -35 -51zM903 178q0 -119 70 -119q53 0 127 86t135 215q78 160 78 281q0 78 -45 78 q-43 0 -115 -65.5t-135 -170.5q-12 -20 -76 -123q-39 -104 -39 -182z" />
<glyph unicode="&#x2c6;" horiz-adv-x="403" d="M12 1329q-29 8 0 31q86 66 238 168q6 4 22 8q27 0 43 -31q37 -72 82 -143q14 -25 -12 -31q-57 -12 -106 39q-23 22 -41 51q-78 -55 -121 -75q-63 -29 -105 -17z" />
<glyph unicode="&#x2da;" horiz-adv-x="215" d="M0 1413q0 49 31.5 92t79.5 43q30 1 59 -24q43 -37 43 -92q0 -49 -31.5 -94.5t-79.5 -45.5q-25 0 -47 17q-55 41 -55 104zM74 1348q2 -2 8 -2q29 0 53 45q16 29 21 61q3 33 -9 41q-4 2 -10 2q-33 0 -59 -53q-35 -72 -4 -94z" />
<glyph unicode="&#x2dc;" horiz-adv-x="1048" d="M-629 -561q0 43 17 90q88 262 444 387q238 580 416 850q16 25 31 25q47 0 47 -101q0 -66 -33 -137q-95 -182 -277 -565q373 166 549 614q-55 23 -55 82q0 74 68.5 164t115.5 92q43 2 43 -59q0 -68 -47 -197q104 16 219 96q41 29 62 6q57 -66 57 -133q0 -43 -29 -75 q-182 -205 -233 -359q-16 -51 -16 -94q0 -100 67 -102q59 -2 133 83q70 80 121 201q14 35 31 0q27 -55 -8 -133q-39 -92 -121 -150.5t-166 -56.5q-88 2 -136 57.5t-48 143.5q0 51 16 108q49 158 254 388q-123 -76 -242 -76q-109 -250 -235 -393q-166 -184 -434 -293 q-283 -678 -474 -678q-41 0 -73 49q-63 92 -64 166zM-532 -623q0 -37 16 -36q35 0 127 139q102 153 186 350q-156 -90 -250 -242q-80 -125 -79 -211zM307 905q0 33 19.5 63.5t50.5 30.5q53 0 80 -59q12 -29 12 -61q0 -92 -63 -93q-45 0 -76 48q-23 35 -23 71z" />
<glyph unicode="&#x2000;" horiz-adv-x="774" />
<glyph unicode="&#x2001;" horiz-adv-x="1549" />
<glyph unicode="&#x2002;" horiz-adv-x="774" />
<glyph unicode="&#x2003;" horiz-adv-x="1549" />
<glyph unicode="&#x2004;" horiz-adv-x="516" />
<glyph unicode="&#x2005;" horiz-adv-x="387" />
<glyph unicode="&#x2006;" horiz-adv-x="258" />
<glyph unicode="&#x2007;" horiz-adv-x="258" />
<glyph unicode="&#x2008;" horiz-adv-x="193" />
<glyph unicode="&#x2009;" horiz-adv-x="309" />
<glyph unicode="&#x200a;" horiz-adv-x="86" />
<glyph unicode="&#x2010;" d="M92 516q-4 16 0 23q4 6 21 6q63 -4 184 6q137 10 172 10q131 0 154 -106q4 -14 -1.5 -22.5t-21.5 -6.5q-33 2 -65 2q-61 0 -162 -10q-92 -12 -131 -10q-129 6 -150 108z" />
<glyph unicode="&#x2011;" d="M92 516q-4 16 0 23q4 6 21 6q63 -4 184 6q137 10 172 10q131 0 154 -106q4 -14 -1.5 -22.5t-21.5 -6.5q-33 2 -65 2q-61 0 -162 -10q-92 -12 -131 -10q-129 6 -150 108z" />
<glyph unicode="&#x2012;" d="M92 516q-4 16 0 23q4 6 21 6q63 -4 184 6q137 10 172 10q131 0 154 -106q4 -14 -1.5 -22.5t-21.5 -6.5q-33 2 -65 2q-61 0 -162 -10q-92 -12 -131 -10q-129 6 -150 108z" />
<glyph unicode="&#x2013;" horiz-adv-x="847" d="M92 520q-2 16 0 23q4 8 23 6q80 -6 266 8q207 14 274 12q129 -2 150 -110q2 -16 -3 -23.5t-22 -5.5q-31 4 -80 4q-76 0 -244.5 -13t-215.5 -13q-127 2 -148 112z" />
<glyph unicode="&#x2014;" horiz-adv-x="966" d="M92 522q-2 16 0 23q4 8 23 6q84 -6 317 10q246 16 340 12q133 -4 152 -112q2 -16 -3.5 -23.5t-23.5 -5.5q-43 6 -106 6q-92 0 -299 -16q-195 -14 -254 -12q-125 4 -146 112z" />
<glyph unicode="&#x2018;" horiz-adv-x="526" d="M326 1208q0 55 28 56q37 0 125 -197q70 -154 96 -242q8 -29 -12 -34q-22 -7 -49 32q-80 117 -166 297q-23 49 -22 88z" />
<glyph unicode="&#x2019;" horiz-adv-x="471" d="M289 909q41 90 123 228q106 184 143 184q25 0 25 -51q0 -41 -31 -92q-143 -232 -213 -293q-20 -14 -39 -13q-23 4 -8 37z" />
<glyph unicode="&#x201a;" horiz-adv-x="1974" d="M10 244q0 113 62 235q76 150 186 240q102 86 191 86q35 0 61 -17q84 -49 121 -104q16 -23 16 -63q0 -104 -84 -211q-96 -125 -215 -125q-82 0 -162 63q-29 -82 -28 -151q0 -162 118 -168q156 -6 324 184q139 158 238 385q-57 25 -58 88q0 74 70 166q66 86 115 88 q41 2 41 -61q0 -72 -48 -195q100 14 222 96q43 29 57 6q59 -68 59 -135q0 -43 -28 -76q-189 -213 -234 -356q-16 -51 -16 -94q0 -98 67 -100q88 -2 209 178q113 164 201 399q-63 23 -63 88q0 74 65 164q63 84 111 88q45 2 45 -65q0 -70 -43 -191q102 10 229 96q39 27 57 6 q59 -68 60 -135q0 -43 -29 -75q-195 -219 -235 -355q-16 -51 -17 -94q0 -102 68 -104q61 -2 135 81q68 80 119 201q6 14 16 15q12 0 17 -13q23 -55 -11 -133q-39 -92 -120.5 -151.5t-165.5 -57.5q-88 2 -136.5 57.5t-48.5 143.5q0 51 19 108q45 145 256 392 q-121 -80 -246 -80q-252 -614 -504 -625q-86 -4 -134 54.5t-48 148.5q0 55 18 113q47 154 254 385q-123 -78 -245 -78q-293 -614 -633 -617q-131 -2 -205 78q-70 74 -70 197zM205 393q35 -20 69 -20q76 0 172 121q88 113 89 190q0 29 -27 29q-51 0 -135 -80 q-92 -86 -150 -205q-4 -4 -9 -16.5t-9 -18.5z" />
<glyph unicode="&#x201c;" horiz-adv-x="638" d="M326 1208q0 59 30 60q37 0 125 -205q70 -164 97 -254q6 -25 -9 -33q-22 -12 -51 33q-121 195 -172 313q-20 47 -20 86zM518 1167q-25 80 8 129q8 12 21 13q16 0 28 -25q70 -150 117 -434q0 -31 -18 -31q-25 0 -43 41q-51 113 -113 307z" />
<glyph unicode="&#x201d;" horiz-adv-x="636" d="M289 899q33 84 106.5 209t124.5 182q14 14 27 15q14 0 22.5 -16.5t8.5 -37.5q0 -39 -35 -92q-119 -180 -191 -264q-31 -35 -53 -29q-20 6 -10 33zM389 797q-18 14 0 41q47 74 146.5 195.5t156.5 170.5q12 12 27 13q25 0 26 -23q4 -55 -49 -125q-80 -103 -254 -250 q-39 -33 -53 -22z" />
<glyph unicode="&#x201e;" horiz-adv-x="1957" d="M8 246q0 137 88 286q150 256 326 267q86 4 139 -68l70 -82q35 -49 28 -143q-2 -18 -6 -31q100 10 160 125q-55 23 -55 84q0 76 69.5 165t118.5 89q41 0 41 -61q0 -68 -47 -193q98 14 221 94q41 27 60 6q57 -63 57 -133q0 -43 -27 -73q-188 -214 -235 -357 q-18 -57 -19 -102q0 -94 72 -94q86 0 209 178q113 164 201 397q-63 23 -64 90q0 74 64.5 161t111.5 89q43 2 43 -68q0 -72 -41 -188q100 12 226 98q41 29 61 4q57 -66 57 -133q0 -43 -28 -75q-180 -205 -234 -357q-18 -53 -18 -96q0 -96 69 -100q59 -4 134 79q68 80 120 201 q16 37 31 2q25 -57 -8 -133q-41 -94 -122 -153.5t-165 -55.5q-88 4 -136 59.5t-48 143.5q0 51 16 106q49 162 256 392q-123 -78 -245 -78q-246 -618 -502 -625q-88 -2 -137.5 54.5t-49.5 146.5q0 53 19 110q49 158 256 390q-117 -76 -250 -76q-96 -162 -252 -170 q-35 -141 -121 -262q-94 -135 -200 -170q-39 -12 -78 -13q-111 0 -183 99q-53 72 -53 174zM129 158q0 -104 68 -105q119 0 239 223q45 85 74 173q-131 70 -135 200q-88 -78 -156 -194q-90 -158 -90 -297zM477 641q-10 -86 49 -133q18 90 13 141q-6 43 -27 43q-29 0 -35 -51z " />
<glyph unicode="&#x2026;" horiz-adv-x="1003" d="M113 37q0 43 30.5 85t71.5 42q63 0 64 -76q0 -25 -11 -51q-31 -76 -94 -76q-61 0 -61 76zM383 33q0 26 10 53q33 78 99 78q61 0 61 -74q0 -27 -10 -55q-29 -76 -99 -76q-61 0 -61 74zM666 33q0 26 10 53q29 74 94 74q57 0 57 -70q0 -25 -10 -53q-31 -74 -94 -74 q-57 0 -57 70z" />
<glyph unicode="&#x202f;" horiz-adv-x="309" />
<glyph unicode="&#x2039;" horiz-adv-x="1320" d="M10 250q0 115 62 235q76 150 188 242q102 84 191 84q35 0 61 -16q80 -47 121 -105q16 -23 16 -63q0 -102 -84 -211q-98 -125 -215 -125q-82 0 -162 63q-29 -84 -28 -153q0 -164 119 -170q156 -6 323 186q141 160 240 387q-59 25 -60 88q0 74 72 166q68 86 117 88 q39 2 39 -61q0 -70 -47 -195q100 14 223 96q43 29 57 7q59 -66 60 -136q0 -45 -29 -75q-190 -209 -236 -357q-16 -51 -16 -94q0 -100 68 -102q61 -2 135 84q68 78 121 198q16 35 30 2q25 -53 -10 -133q-39 -92 -121 -153.5t-166 -57.5q-88 4 -136 60.5t-48 142.5 q0 53 18 111q49 158 254 387q-123 -78 -245 -78q-293 -612 -635 -619q-131 -2 -204 76t-73 201zM207 399q35 -20 69 -20q76 0 173 121q90 115 90 188q0 31 -29 31q-51 0 -135 -80q-92 -86 -152 -205q-4 -12 -16 -35z" />
<glyph unicode="&#x203a;" horiz-adv-x="1296" d="M8 250q0 131 84 285q59 109 149.5 183.5t180.5 82.5q78 6 137 -70q35 -41 72 -80q33 -51 26 -145q0 -4 -2 -15.5t-2 -17.5q100 18 160 127q-55 25 -55 84q0 76 69.5 164t116.5 90q41 2 41 -61q0 -70 -47 -195q98 14 221 98q41 29 62 4q55 -66 55 -133q0 -43 -29 -76 q-178 -201 -231 -356q-18 -53 -19 -98q0 -94 70 -98q59 -4 131 81q68 80 121 199q16 37 31 4q26 -61 -7 -133q-43 -94 -123.5 -154.5t-162.5 -56.5q-90 4 -138.5 60.5t-48.5 144.5q0 51 17 108q43 139 256 390q-125 -80 -248 -80q-100 -160 -254 -166q-33 -141 -119 -264 q-94 -135 -200 -170q-37 -12 -76 -13q-111 0 -185 101q-53 72 -53 176zM127 156q0 -104 66 -105q51 0 117.5 60.5t125.5 167.5q52 91 72 167q-129 74 -133 201q-94 -80 -158 -192q-90 -158 -90 -299zM475 641q-10 -84 51 -135q16 84 11 143q-6 43 -27 43q-29 0 -35 -51z" />
<glyph unicode="&#x205f;" horiz-adv-x="387" />
<glyph unicode="&#x2122;" horiz-adv-x="1181" d="M344 1204q-4 12 1 18.5t20 4.5q29 -6 61 -6q70 0 190 28q137 33 185 37q125 12 178 -92q6 -12 2 -20q-6 -10 -23 -9q-86 9 -215 -24q-201 -281 -337 -572q-14 -31 -35 -2q-25 35 -25 78q0 45 23 100q47 117 196 359q-12 0 -35 -4q-147 -14 -186 104zM555 549q0 43 25 102 q86 213 251 459q12 20 25 20q12 0 27 -16q20 -23 57 -65q12 -16 4 -82q-12 -70 -35 -226q168 240 336 387q29 27 51 0q29 -35 43 -86q13 -45 -16 -92q-150 -246 -242 -463q-12 -27 -30 -4q-31 35 -31 82q0 41 22 97q35 88 93 194q-127 -150 -254 -338q-14 -20 -41 -4 q-61 39 -60 127q6 57 25 184q-121 -201 -191 -350q-14 -31 -32 -6q-27 35 -27 80z" />
<glyph unicode="&#x25fc;" horiz-adv-x="798" d="M0 0v799h799v-799h-799z" />
</font>
</defs>
</svg>
